<svg
   viewBox="0 0 8.4878376 9.2603072"
   height="45px"
   width="45px" xmlns="http://www.w3.org/2000/svg">
   <g
     transform="translate(-20.734322,-160.10794)"
     id="layer1">
    <path
       id="path826"
       d="m 24.325257,160.12004 c -0.336211,0 -0.586002,0.13868 -0.705741,0.39179 -0.07483,0.15816 -0.121999,0.37401 -0.124231,0.56834 -0.0018,0.15365 0.0035,0.19069 0.04367,0.3094 0.08932,0.26367 0.27271,0.64254 0.56468,1.16648 0.168706,0.30275 0.281935,0.55242 0.327438,0.72208 0.04144,0.15451 0.0064,0.26747 -0.03824,0.37957 -0.06862,0.1722 -0.242176,0.31683 -0.380658,0.31725 -0.136516,4e-4 -0.186648,0.048 -0.343959,-0.24075 -0.185405,-0.34032 -0.302245,-0.43974 -0.517287,-0.44005 -0.134602,-1.9e-4 -0.233398,0.0344 -0.322418,0.11271 -0.09894,0.0871 -0.155514,0.20874 -0.164866,0.35446 -0.01916,0.29861 0.118143,0.43426 0.63287,0.62512 0.289657,0.10741 0.362466,0.14416 0.373591,0.18849 0.005,0.0199 0.0051,0.0465 2.48e-4,0.0592 -0.02553,0.0665 -0.244261,0.11919 -0.496427,0.11961 -0.28947,4.6e-4 -0.53713,-0.0775 -0.85356,-0.26861 -0.332645,-0.20091 -0.584005,-0.26147 -0.853683,-0.20565 -0.248787,0.0515 -0.513263,0.26049 -0.623572,0.49277 -0.146509,0.30851 -0.126346,0.59713 0.05561,0.79622 0.142405,0.15581 0.403793,0.24313 0.682215,0.22785 0.171553,-0.009 0.26668,-0.036 0.617465,-0.17234 0.134473,-0.0523 0.291585,-0.10502 0.349136,-0.11722 0.138289,-0.0294 0.399725,-0.0289 0.513908,8.7e-4 0.189711,0.0494 0.248029,0.21664 0.333205,0.33956 0.08969,0.12942 0.13631,0.37172 0.136071,0.70766 0.04458,0.78533 -0.477629,0.69464 -0.914343,1.37313 -0.03361,0.0972 -0.04139,0.14958 -0.04237,0.28566 -0.0011,0.15271 0.0025,0.17393 0.04349,0.25392 0.116591,0.22782 0.350628,0.365 0.622734,0.365 0.246144,0 0.378024,-0.0953 0.692042,-0.49989 0.193187,-0.24894 0.324685,-0.37606 0.455698,-0.44054 0.09556,-0.0471 0.116649,-0.0513 0.247594,-0.0499 0.161642,0.002 0.285491,0.0304 0.611483,0.14172 0.299496,0.10223 0.456976,0.19677 0.63786,0.38298 0.113868,0.11722 0.141934,0.19671 0.155877,0.44128 0.01961,0.3439 0.08488,0.45499 0.309028,0.52588 h 3.1e-5 c 0.108508,0.0343 0.27401,0.0273 0.365904,-0.0155 0.204252,-0.0951 0.318438,-0.37762 0.25432,-0.62911 -0.02801,-0.10987 -0.07874,-0.19518 -0.221589,-0.3727 -0.04916,-0.0611 -0.103609,-0.14884 -0.121007,-0.19499 -0.08515,-0.2259 0.0052,-0.55472 0.205781,-0.74898 0.113852,-0.11026 0.231979,-0.18077 0.409081,-0.24412 0.125309,-0.0448 0.157067,-0.0498 0.321549,-0.0497 0.205587,8e-5 0.254718,0.0158 0.522247,0.16656 0.07501,0.0422 0.193526,0.0961 0.263339,0.11959 0.115065,0.0387 0.142506,0.042 0.29356,0.0346 0.189235,-0.009 0.295463,-0.0374 0.397459,-0.10566 0.150762,-0.10093 0.199478,-0.26085 0.152405,-0.50043 -0.03236,-0.16474 -0.08335,-0.27189 -0.171097,-0.35964 -0.110682,-0.11068 -0.245525,-0.1559 -0.56127,-0.18821 -0.342644,-0.0351 -0.431516,-0.0613 -0.518899,-0.15339 -0.09629,-0.10146 -0.115377,-0.23535 -0.05833,-0.40912 0.02675,-0.0815 0.07534,-0.1574 0.234079,-0.36562 0.110177,-0.14453 0.234298,-0.31087 0.275831,-0.36963 0.145113,-0.20532 0.175646,-0.42426 0.0843,-0.6045 -0.05646,-0.11143 -0.15345,-0.21466 -0.241922,-0.25749 -0.100796,-0.0488 -0.290894,-0.0363 -0.489174,0.032 -0.256321,0.0884 -0.392323,0.0806 -0.50179,-0.0289 -0.0755,-0.0755 -0.101564,-0.16628 -0.07854,-0.27363 0.03968,-0.18499 0.15069,-0.30978 0.393522,-0.44231 0.239126,-0.1305 0.337762,-0.19042 0.434218,-0.2638 0.165176,-0.12567 0.338387,-0.34106 0.423153,-0.52621 0.13949,-0.30469 -0.05943,-0.63712 -0.421262,-0.70401 -0.116469,-0.0216 -0.211502,-0.007 -0.331809,0.0511 -0.132972,0.0642 -0.211771,0.15835 -0.317458,0.37955 -0.04796,0.10037 -0.118457,0.24761 -0.156683,0.32719 -0.07932,0.16512 -0.190725,0.29895 -0.284138,0.34139 -0.08359,0.0379 -0.235714,0.0389 -0.309771,0.002 -0.118723,-0.0593 -0.115532,-0.15977 0.01172,-0.36895 0.174536,-0.28691 0.2263,-0.41358 0.2263,-0.55373 0,-0.17877 -0.134659,-0.30008 -0.350251,-0.31551 -0.130709,-0.009 -0.223594,0.0286 -0.3063,0.12525 -0.08849,0.1034 -0.110241,0.20335 -0.11363,0.52182 -0.0039,0.36848 -0.03561,0.4797 -0.169144,0.594 -0.09915,0.0848 -0.204021,0.11044 -0.408957,0.0997 -0.370568,-0.0194 -0.518674,-0.12818 -0.631537,-0.46357 -0.03926,-0.11666 -0.04269,-0.14693 -0.04209,-0.37294 6.18e-4,-0.23144 0.004,-0.25864 0.05803,-0.46022 0.158483,-0.59183 0.157825,-0.5887 0.166323,-0.79408 0.007,-0.16851 0.0031,-0.21926 -0.02529,-0.33153 -0.0894,-0.35351 -0.326817,-0.54072 -0.685749,-0.54072 z m 2.30825,4.14493 c 0.04697,-5e-4 0.08754,0.0133 0.111213,0.0403 0.01872,0.0213 0.02725,0.048 0.02328,0.0728 -0.0077,0.0479 -0.0203,0.0629 -0.223511,0.26492 -0.205463,0.20427 -0.258562,0.26021 -0.365593,0.38506 -0.220865,0.25764 -0.437198,0.57123 -0.613529,0.88936 -0.105359,0.19008 -0.252569,0.49742 -0.333173,0.69557 -0.0451,0.11089 -0.04869,0.11735 -0.07178,0.12913 -0.02357,0.012 -0.0418,0.0125 -0.06366,0.002 -0.02,-0.01 -0.02252,-0.0135 -0.08311,-0.11843 -0.259813,-0.45018 -0.438694,-0.69025 -0.69979,-0.93924 -0.04002,-0.0381 -0.07637,-0.077 -0.0808,-0.0863 -0.0059,-0.0124 -0.0073,-0.024 -0.0049,-0.0439 0.0044,-0.037 0.01483,-0.0599 0.03877,-0.0843 0.08817,-0.0901 0.279038,-0.0489 0.664796,0.14336 l 0.12668,0.0632 0.01169,-0.0133 c 0.0064,-0.007 0.0503,-0.0581 0.09745,-0.1127 0.318375,-0.36901 0.724223,-0.78658 0.96657,-0.99446 0.173483,-0.14882 0.308537,-0.2397 0.410227,-0.27605 0.03051,-0.0109 0.06099,-0.0164 0.08917,-0.0166 z"
       style="fill:#ff6600;fill-opacity:1;stroke:none;stroke-width:0.02399213;stroke-miterlimit:4;stroke-dasharray:none;stroke-opacity:1" />
  </g>
</svg>
