<svg
      xmlns="http://www.w3.org/2000/svg"
      width="48"
      height="48"
      version="1.1"
      viewBox="0 0 117.623 107.913"
    >
      <g transform="translate(-52.575 -50.24)">
        <path
          fill="#1a1a1a"
          strokeWidth="0.085"
          d="M116.49 158.098c-1.79-.2-5.317-1.125-6.946-1.822-2.252-.964-4.933-2.54-7.13-4.193-2.977-2.238-4.581-3.736-5.883-5.492-.543-.733-.629-.963-.68-1.81-.042-.717-.02-.864.301-2.043.19-.698.39-1.607.443-2.018.07-.535.084-2.705.051-7.62-.05-7.526-.088-8.2-.557-9.942-.135-.5-.422-1.639-.637-2.53a50.174 50.174 0 00-.808-2.921c-.39-1.212-.46-1.36-1.054-2.19-.738-1.03-1.609-2.675-1.995-3.767a21.909 21.909 0 01-.527-1.862l-.377-1.61c-.387-1.657-.16-6.95.425-9.854.171-.85.177-.956.06-1.06-.073-.065-1.008-.69-2.08-1.39l-5.844-3.817c-2.433-1.59-4.043-2.697-4.287-2.949-.35-.361-25.99-37.316-26.281-37.88-.288-.557.018-1.088.627-1.088.183 0 1.052.188 1.93.419.879.23 4.78 1.243 8.667 2.25a36297.386 36297.386 0 0129.337 7.608c2.422.627 4.498 1.177 4.615 1.222.116.045 2.155 1.368 4.53 2.94 5.003 3.31 5.47 3.614 5.501 3.579.012-.015.274-.54.58-1.17.64-1.31 1.829-2.98 2.644-3.71 1.009-.906 3.11-1.969 4.682-2.368.814-.207 1.04-.228 2.34-.222 1.224.006 1.548.037 2.16.203 1.083.294 1.687.6 2.562 1.296 1.138.906 1.814 1.839 2.26 3.119.136.39.363 1.033.505 1.428.182.509.259.876.26 1.25 0 .305.037.528.088.528.048 0 .605-.095 1.239-.212.903-.167 1.3-.202 1.839-.161 1.015.076 2.096.343 3.113.768.716.299 1.028.487 1.51.912 1.344 1.182 2.149 2.427 2.76 4.27.312.941.313.943.586.943.423 0 1.615.225 2.456.464.95.27 1.86.713 3.004 1.464 1.701 1.116 2.508 1.975 3.241 3.448.342.687.907 2.255.908 2.52 0 .058.04.247.088.42.082.296.121.325.656.485.312.093.843.301 1.178.463 1.14.548 2.92 2.38 3.578 3.684.35.694.82 2.314.978 3.37.209 1.395.18 4.089-.07 6.493-.012.128 1.53 1.183 7.236 4.953 3.988 2.634 7.335 4.866 7.438 4.96.102.092.235.264.294.38.059.117.577 1.755 1.15 3.641l1.044 3.43-1.508 4.529c-.83 2.491-1.54 4.587-1.578 4.656-.758 1.368-5.13 8.483-5.267 8.57-.104.066-2.18 1.065-4.615 2.22-3.81 1.81-4.466 2.095-4.713 2.055-.182-.03-1.554-.876-3.744-2.31-1.902-1.244-3.953-2.565-4.558-2.936a34.16 34.16 0 01-1.651-1.072 21.195 21.195 0 00-.645-.455c-.057-.034-.22.145-.406.446-.17.277-.49.704-.711.95-.22.247-.57.673-.778.947-.449.593-2.098 2.273-3.204 3.264-.435.39-.823.788-.862.886-.256.634-.947 2.92-1.054 3.482-.07.371-.223 1.475-.34 2.452-.23 1.923-.266 3.577-.132 6.097l.072 1.355.516 1.5c.543 1.58.59 1.845.399 2.3-.124.297-.612.703-.795.661-.06-.013-.217.053-.35.148-.684.487-2.913 1.238-5.137 1.73-1.806.401-5.786 1.035-7.544 1.202-1.756.167-4.148.22-5.102.114zm7.204-1.764c2.508-.335 6.305-1.078 6.805-1.332.14-.071.582-.256.984-.411 1.373-.53 2.135-.986 2.278-1.361.051-.135.038-.336-.041-.606-.517-1.77-.675-2.594-.813-4.255-.119-1.426-.058-3.89.13-5.29.172-1.275.613-3.596.766-4.03.07-.198.112-.374.093-.392-.018-.019-.422.007-.899.055-3.666.377-7.583-.561-10.626-2.544-.812-.53-2.395-2.094-3.18-3.144-.635-.848-1.39-2.084-1.319-2.156.088-.088.617.379 1.507 1.332 2.168 2.32 4.038 3.567 7.169 4.778 1.434.554 2.19.654 3.824.505 3.356-.306 5.628-1.56 8.03-4.433 1.047-1.253 1.357-1.682 1.774-2.45l.338-.625-.21-.766c-.398-1.453-.653-2.046-1.847-4.293a6.415 6.415 0 00-.653-.971 5.408 5.408 0 01-.489-.651c-.274-.496-1.651-1.865-2.684-2.668-2.426-1.888-3.814-2.7-7.335-4.296-1.95-.883-2.39-1.022-5.529-1.744-1.03-.237-2.952-.903-3.69-1.28a3.53 3.53 0 01-.593-.402 3.303 3.303 0 00-.54-.376c-.552-.282-1.08-1.007-1.964-2.7-.875-1.674-1.059-2.095-1.212-2.777-.105-.469-1.33-2.999-1.62-3.346a11.79 11.79 0 01-.615-.887c-1.739-2.723-4.315-5.096-6.902-6.358-.558-.272-1.014-.535-1.014-.584 0-.102.03-.096 1.64.308.645.162 1.224.275 1.286.251.14-.054.507-1.224.665-2.126.321-1.826.424-3.214.428-5.758l.003-2.54-.282-1.27c-.567-2.555-.838-3.485-1.168-4-.514-.804-1.254-1.726-1.823-2.272-1.587-1.52-2.115-1.766-4.172-1.94-1.28-.107-1.37-.105-1.761.05-.825.325-1.077.503-1.555 1.103-.45.563-.497.668-.725 1.587l-.244.985.088 1.609c.047.885.126 2.294.175 3.132.048.839.063 2.077.032 2.752-.048 1.064-.105 1.425-.432 2.71-.432 1.7-1.984 6.328-2.528 7.536-.717 1.596-.892 2.39-1.268 5.756-.247 2.213-.265 3.281-.077 4.548.232 1.567.493 2.428 1.12 3.707 1.623 3.305 4.398 6.39 7.013 7.793.411.22 1.073.585 1.47.808.848.478 3.163 1.366 4.094 1.57.96.211.695.308-.721.264-1.175-.036-1.255-.05-2.373-.427-.637-.214-1.494-.559-1.905-.765-.728-.366-2.475-1.496-3.415-2.209-.691-.524-.675-.52-.547-.094.581 1.93.937 4.482 1.33 9.528.328 4.228.222 10.74-.237 14.619-.28 2.358-.136 2.726 1.961 5.002 1.148 1.245 3.76 3.195 6.299 4.702.956.568 3.202 1.482 6.21 2.527 2.18.758 2.195.762 4.148 1.045 2.844.412 4.054.407 7.348-.033zm34.025-26.592c0-.047-.017-.085-.037-.085-.02 0-.061.038-.09.085-.029.046-.012.085.037.085.05 0 .09-.039.09-.085zm-.353-.187c-.134-.122-.663-.415-.663-.367 0 .062.709.55.745.514.02-.02-.017-.086-.083-.147zm.141-1.024c.094-.025.341-.086.55-.136.21-.05.526-.142.703-.205.177-.063.434-.107.572-.099.137.008.25-.02.25-.061 0-.042.03-.058.065-.036.036.023.253-.05.481-.16.229-.11.443-.183.476-.162.034.02.081-.017.107-.083.025-.065.259-.163.52-.218.585-.121 1.577-.168 1.517-.071-.024.04.044.072.152.072.157.001.17.018.069.084-.109.07-.105.082.023.083.083.001.175.062.203.137.058.15.139.032 1.493-2.185l.812-1.329-1.202-.837c-.661-.461-3.831-2.622-7.045-4.802a16275.644 16275.644 0 01-15.663-10.64c-5.945-4.041-11.28-7.59-11.398-7.582-.18.012-.667-.2-.667-.29 0-.045-.033-.061-.074-.036-.074.045-.842-.241-1.323-.494-.14-.073-.3-.134-.357-.134-.163 0-.737-.286-.812-.404-.038-.06-.105-.086-.15-.058-.044.027-.28-.045-.524-.16a20.935 20.935 0 00-.803-.357c-.198-.081-.36-.177-.36-.213 0-.036-.113-.09-.253-.12-.139-.031-.274-.091-.3-.134-.027-.043-.12-.079-.206-.079-.087 0-.17-.03-.186-.066-.039-.09-1.146-.78-1.254-.78-.047 0-.086-.032-.086-.07 0-.04-.048-.071-.107-.071-.058 0-.267-.102-.464-.226-.196-.124-.415-.226-.486-.226-.07 0-.129-.031-.129-.07 0-.039-.19-.16-.423-.269-.233-.109-.423-.223-.423-.254s-.2-.156-.445-.277a3.684 3.684 0 01-.72-.474c-.151-.14-.275-.231-.275-.202 0 .029-.114-.075-.254-.232-.14-.156-.254-.258-.254-.225 0 .032-.105-.06-.233-.205s-.302-.34-.387-.432c-.085-.092-.134-.22-.11-.286.026-.066.02-.116-.014-.11-.173.025-.272-.025-.272-.139 0-.07-.061-.127-.136-.127-.088 0-.118-.046-.085-.131.028-.076.014-.11-.034-.08-.047.03-.083-.046-.083-.172a.553.553 0 00-.191-.384c-.105-.087-.15-.16-.099-.161.175-.006.067-.324-.202-.592-.149-.15-.27-.302-.27-.34 0-.037-.08-.088-.178-.114-.118-.03-.156-.084-.114-.158.036-.061.035-.085 0-.053-.037.033-.262-.051-.501-.186-.24-.134-.559-.266-.71-.291l-.532-.091c-.384-.066-.929-.301-.929-.401 0-.128-.77-1.04-.858-1.016-.04.012-.073-.017-.073-.063 0-.047-.064-.085-.142-.085a.51.51 0 01-.282-.127c-.078-.07-.31-.151-.515-.18-.205-.028-.401-.095-.436-.147-.046-.071-.062-.071-.063 0-.001.054-.06.12-.133.148-.075.029-.11.014-.08-.034.029-.046-.008-.083-.08-.083a.13.13 0 00-.132.127c0 .07-.04.127-.09.127-.049 0-.067.036-.04.08.058.093-.245.279-.324.199-.03-.03-.054-.009-.054.045 0 .055.043.1.095.1.064 0 .06.042-.015.132a.674.674 0 00-.119.343c-.005.116-.047.238-.093.27-.047.032-.08.144-.072.249.007.105-.026.19-.071.19-.046 0-.059.086-.03.19.14.487.228 1.078.228 1.504 0 .256.039.694.088.973.05.28.09.632.09.784 0 .15.035.275.077.275.042 0 .076.057.076.127s.037.127.082.127c.045 0 .063.05.04.11-.047.12.334.899.506 1.033.06.046.109.117.109.157 0 .127.22.386.998 1.182.419.427.752.806.741.84-.011.036.013.064.055.064.102 0 .856.75.856.851 0 .044.05.08.112.08s.164.096.226.212c.063.117.155.212.206.212.05 0 .142.08.203.178.061.097.13.158.153.136.023-.023.128.04.233.14.106.1.47.429.81.731.34.303.7.628.798.723.099.095.351.304.56.465.21.161.394.322.41.357.015.035.066.064.112.064s.135.048.198.106c.062.058.203.173.311.255.109.082.328.253.487.38.281.226.497.381 1.482 1.07.26.181.472.362.472.402 0 .04.048.073.106.074.058 0 .273.134.477.296.205.163.398.296.43.296.031 0 .188.113.348.251.446.387.455.393.52.388.034-.003.139.062.234.144.095.081.207.148.25.148.042 0 .089.029.104.064.045.099.807.613.91.613.051 0 .092.035.092.078s.143.164.318.269c.175.105.69.442 1.147.748.457.306.952.629 1.1.717.15.088.367.22.483.294.117.073.24.125.273.115.034-.01.102.058.151.15.05.094.143.17.208.17s.17.047.234.105c.168.155.425.315.595.372.081.028.148.084.148.125 0 .041.042.075.094.075.051 0 .242.117.423.26.181.144.33.238.33.209 0-.03.105.044.233.164a9.1 9.1 0 00.866.726c.209.16.442.349.518.419.276.252.802.669 1.097.869.166.112.403.293.528.401.261.228.966.744 1.457 1.067.186.123.424.302.529.397.105.096.19.147.19.113 0-.033.048-.02.106.03.4.338.524.425.61.425.053 0 .26.152.459.338.2.186.411.367.471.402.06.035.238.168.396.294.579.465 1.784 1.336 1.847 1.336.036 0 .176.103.311.23.135.126.541.424.902.662.361.239.631.46.6.49-.032.032-.012.058.043.058.114 0 .972.584 1.015.69.015.04.082.072.148.072.066 0 .12.038.12.084 0 .047.043.085.095.085.141 0 1.135.502 1.316.664.085.077.26.195.388.26.128.067.233.155.233.196 0 .041.038.052.084.023.047-.029.085.007.085.08 0 .072.061.132.136.132.075 0 .28.114.457.254.176.14.344.254.373.254.028 0 .171.114.317.254.147.14.31.254.365.254.054 0 .182.077.284.172.101.095.185.147.185.116 0-.032.1.043.223.166.123.123.272.223.332.223s.12.03.136.065c.034.077.896.697.97.697.027 0 .294.194.592.43.297.238.54.407.54.377 0-.03.23.121.509.336.28.215.509.36.51.323.002-.038.05-.012.108.058.058.07.166.165.24.212.31.195 1.602 1.123 1.825 1.31.056.046.265.169.466.272.2.103.392.227.427.276.034.05.062.061.063.027.001-.034.163.028.361.138.198.11.48.226.628.258.148.031.29.114.317.184.027.071.012.103-.036.074-.046-.028-.083.008-.083.08 0 .073.05.133.11.133.118 0 .566.338.87.656.1.104.244.19.32.19.077 0 .14.042.14.094 0 .051.05.074.113.05a.26.26 0 01.203.012c.102.063.74.055.995-.012zm9.782-9.33c.664-1.956 1.224-3.603 1.245-3.66.023-.06-3.012-2.129-7.568-5.155-10.194-6.772-11.153-7.399-11.307-7.399-.097 0-.407.323-.407.424 0 .046-.077.084-.172.084-.094 0-.193.057-.22.127-.027.07-.078.108-.114.086-.037-.023-.163.035-.28.127-.118.093-.246.168-.286.168-.04 0-.175.095-.3.212-.126.116-.264.212-.307.212-.043 0-.125.056-.182.126-.058.069-.139.105-.18.08-.041-.026-.075-.012-.075.03 0 .043-.372.167-.826.277-1.03.248-2.078.258-3.397.03-.388-.067-1.052-.282-1.11-.36-.024-.032-.242-.15-.485-.26-.243-.112-.426-.228-.408-.257.018-.03-.076-.128-.21-.217a1.086 1.086 0 01-.333-.362c-.05-.108-.125-.176-.168-.15-.043.027-.102-.026-.131-.117a.377.377 0 00-.218-.219c-.09-.029-.165-.092-.165-.14 0-.049-.057-.066-.127-.04-.07.027-.127.009-.127-.042 0-.05-.057-.069-.127-.042-.07.027-.127.01-.127-.038s-.036-.065-.08-.038c-.043.027-.118-.019-.166-.101-.048-.083-.089-.102-.09-.044-.001.058-.09.106-.197.106a.523.523 0 01-.31-.106c-.083-.078-.098-.079-.055-.003.04.071-.018.097-.191.084-.137-.01-.234-.042-.216-.071.018-.03-.062-.072-.178-.094-.115-.023-.21-.003-.21.043 0 .047-.052.04-.12-.016-.068-.057-.14-.066-.167-.022-.055.09-.494.026-.565-.081-.026-.04-.159-.079-.296-.088a.796.796 0 01-.393-.136c-.078-.066-.193-.102-.254-.08-.06.021-.186.001-.28-.044-.341-.168.069.162 1.101.885.98.686 6.454 4.436 8.89 6.09l10.287 6.986c11.346 7.706 10.27 6.992 10.339 6.866.031-.058.6-1.705 1.263-3.66zm.758-5.694c-.001-.035-.316-1.08-.699-2.322l-.697-2.258-3.81-2.516c-7.19-4.75-10.16-6.698-10.54-6.918l-.382-.22-.017.378c-.022.485-.506 1.482-.951 1.959l-.334.358.482.37c.265.204 3.835 2.596 7.933 5.316l8.17 5.425c.722.482.848.546.845.428zm-22.503-9.683c1.093-.23 2.927-1.4 3.663-2.337.618-.787 1.562-2.844 1.858-4.046.33-1.344.607-4.254.522-5.501-.07-1.023-.369-1.993-.992-3.22-.574-1.127-1.037-1.772-1.506-2.094l-.78-.534c-.415-.284-1.501-.765-1.837-.814l-.198-.029-.02 1.228c-.038 2.218-.184 3.31-.771 5.763-.57 2.381-.752 2.947-1.32 4.111a9.432 9.432 0 01-2.633 3.217c-.575.447-.654.7-.502 1.59.146.852.5 1.45 1.136 1.925.29.215.61.435.713.487.62.318 1.818.433 2.667.254zm-6.943-3.513c2.026-.638 4.11-2.556 5.153-4.743.282-.59 1.092-3.343 1.293-4.392.467-2.441.486-2.61.492-4.41.004-1.309-.032-1.991-.14-2.617-.467-2.73-1.472-4.538-3.303-5.94-1.01-.773-2.927-1.28-4.417-1.169l-.8.06.055 1.831c.047 1.534.027 2.094-.117 3.45-.096.892-.247 1.92-.338 2.287a29.41 29.41 0 00-.31 1.47c-.08.443-.219 1.033-.308 1.313-.09.28-.293.974-.453 1.544-.384 1.373-1.203 3.424-1.96 4.907-.584 1.146-.618 1.244-.715 2.078-.087.75-.082.96.032 1.465.193.851.427 1.339.872 1.814.573.613 1.078.903 1.901 1.092 1.086.25 2.187.236 3.063-.04zm-9.81-3.015c.96-.4 1.826-.941 2.524-1.581.483-.443.645-.678 1.241-1.804 1.234-2.33 2.228-5.466 2.856-9l.226-1.27-.044-3.514-.043-3.514-.262-1.049c-.367-1.47-1.22-3.063-2.197-4.104-.658-.7-1.245-1.12-1.922-1.37-.627-.233-.75-.25-1.856-.247-1.015.002-1.312.036-2.057.233-.921.243-1.461.475-1.775.762-.177.162-.19.246-.192 1.197-.005 2.36-.535 5.79-1.514 9.801-.804 3.292-1.524 6.86-1.707 8.451-.184 1.595-.013 3.19.484 4.53.178.48.32.689.744 1.1.617.598 1.55 1.15 2.525 1.495.61.216.794.243 1.46.22.65-.022.871-.071 1.509-.336zm-20.267-.75c-.052-.098-.115-.157-.14-.131-.07.07.041.307.144.307.063 0 .061-.054-.004-.177zm-15.71-1.856l.056-.297-.14.297c-.076.163-.168.41-.204.55-.036.14-.09.33-.119.423-.03.094.038-.02.149-.254.11-.232.227-.556.258-.72zm1.865-5.768a.599.599 0 00-.19-.15c-.12-.065-.142-.036-.135.186.004.144.05.276.102.293.064.022.068.098.013.243a1.043 1.043 0 00-.074.312c.003.055.079-.105.168-.355.088-.25.14-.488.116-.529zm22.87-.493c1.474-.353 2.552-.958 3.341-1.875.617-.717.724-.923 1.3-2.505.627-1.721.85-2.486 1.157-3.965.145-.698.429-2.012.63-2.92.356-1.6.37-1.723.462-3.937.143-3.43-.057-6.273-.504-7.158-.248-.493-1.354-2.034-1.81-2.522-.35-.377-1.568-1.167-1.971-1.279-.609-.169-2.3-.109-3.519.125-1.766.339-2.511.615-3.545 1.316-.699.474-1.079.954-1.986 2.508-.655 1.121-1.56 2.928-1.56 3.114 0 .08 1.008.717 1.042.657.02-.035.083-.33.14-.656.269-1.518.756-3.055 1.022-3.219.246-.152.263.135.085 1.453-.424 3.154-.516 3.882-.681 5.407-.096.885-.21 2.542-.255 3.683-.043 1.14-.099 2.303-.123 2.582-.108 1.257.173 3.32.733 5.376l.265.974.883.901a11.514 11.514 0 001.779 1.503l.896.602h.769c.466-.001 1.037-.066 1.45-.165zm-36.846-.9c1.587-.41 2.55-1.5 2.9-3.284.14-.71.14-.813-.002-2.056-.195-1.72-.233-1.65 1.135-2.063.573-.173 1.605-.628 3.127-1.38 1.691-.837 2.386-2.807 1.922-5.45-.167-.951-.118-1.212.23-1.212.393 0 1.914-1.165 2.905-2.225.787-.843 1.058-1.753 1.03-3.466-.016-1.034.127-1.3 1.016-1.888.688-.455 1.198-1.059 1.226-1.452l.017-.235-6.943-1.802-15.26-3.961c-4.573-1.187-8.378-2.159-8.454-2.159-.099 0-.12.042-.075.149.035.081.082.479.104.883.033.595.005.852-.145 1.354-.488 1.626-1.793 3.19-3.282 3.936-.375.187-.59.342-.555.4.03.052 2.784 4.038 6.119 8.857l8.976 12.975c2.877 4.16 2.918 4.212 3.201 4.212.158 0 .521-.06.807-.134zm14.31-.385c.14-.701.026-2.894-.256-4.935-.248-1.794-.036-4.369.438-5.303l.201-.398-2.191-1.492a120.474 120.474 0 00-2.219-1.493c-.014 0-.027.717-.027 1.592v1.592l-.326.661c-.348.704-.979 1.412-1.697 1.907-.22.15-.953.534-1.628.852-.676.317-1.247.595-1.268.616-.022.021.238.205.578.407.339.203.864.547 1.166.764.564.405 1.415.928 1.567.963.236.054.912.422 1.116.607.059.054.25.185.427.292.176.107.339.216.362.241.023.026.27.2.55.386s.52.367.536.402c.016.035.083.063.149.063.066 0 .12.058.12.127 0 .07.053.127.12.127.157 0 .648.624.665.845.007.094.041.171.076.171.036 0 .044.055.018.12-.03.08.194.296.656.636.386.283.727.514.758.514.03 0 .08-.119.109-.264zm13.902-4.73c-.023-.35-.06-.77-.083-.932a24.22 24.22 0 01-.159-1.884c-.002-.175-.033-.318-.067-.318-.035 0-.052-.066-.04-.148a.418.418 0 00-.025-.232c-.027-.047-.057-.417-.066-.822-.009-.405-.04-.774-.068-.82-.028-.045-.019-.102.02-.127.095-.058.018-.586-.096-.66-.06-.038-.056-.095.013-.179a.292.292 0 00.049-.262.27.27 0 01.034-.243c.129-.156-.339-.484-7.095-4.979l-6.054-4.027-.061.571c-.121 1.139-.738 2.46-1.533 3.28-.241.25-.81.736-1.264 1.082-.454.347-.825.657-.825.69 0 .034 1.108.81 2.46 1.726l2.46 1.666.398-.245c.801-.494 2.582-.742 3.37-.47.227.08.806.216 1.286.304 1.71.312 3.22 1.303 4.514 2.962.273.35.686.863.917 1.138.65.778 1.139 1.797 1.363 2.843.044.21.148.622.229.917l.148.535.109-.366c.069-.23.093-.603.066-1zm-.514-8.552c-.058-.094-.08-.198-.165-.805a3.896 3.896 0 00-.273-.889c-.535-1.165-.983-2.032-1.053-2.032-.041 0-.076-.051-.076-.114s-.095-.218-.211-.343c-.117-.126-.212-.26-.212-.3 0-.04-.14-.195-.313-.347-.355-.311-8.532-5.754-8.646-5.754-.04 0-.117.145-.17.322-.137.457-.532 1.022-1.073 1.533-.256.243-.466.458-.466.48 0 .033 5.619 3.776 9.821 6.542 1.424.937 2.786 1.791 2.856 1.791.018 0 .01-.037-.019-.084zM64.333 57.817c.533-1.106.605-2.031.228-2.934l-.118-.283-3.845-.959a528.847 528.847 0 00-3.994-.987c-.333-.063.714 1.145 2.557 2.952 1.73 1.696 2.014 1.966 2.589 2.465.268.233.63.561.805.729.175.167.38.328.455.357.075.029.138.101.14.16.008.237.876-.862 1.183-1.5z"
        ></path>
      </g>
    </svg>